<?xml version="1.0" standalone="no"?>
<!DOCTYPE svg PUBLIC "-//W3C//DTD SVG 20010904//EN"
 "http://www.w3.org/TR/2001/REC-SVG-20010904/DTD/svg10.dtd">
<svg version="1.0" xmlns="http://www.w3.org/2000/svg"
 width="118.000000pt" height="118.000000pt" viewBox="0 0 118.000000 118.000000"
 preserveAspectRatio="xMidYMid meet">
<metadata>
Created by potrace 1.14, written by Peter Selinger 2001-2017
</metadata>
<g transform="translate(0.000000,118.000000) scale(0.100000,-0.100000)"
fill="#000000" stroke="none">
<path d="M1015 1105 c-31 -30 -32 -66 -2 -100 39 -45 103 -39 126 12 16 35 14
57 -10 87 -28 35 -80 36 -114 1z"/>
<path d="M566 1048 c-113 -15 -185 -60 -314 -201 -4 -4 -30 -29 -58 -55 -149
-137 -185 -343 -92 -528 43 -88 37 -90 196 69 l143 143 -20 45 c-23 50 -28
136 -8 162 7 10 29 19 52 21 41 3 132 -18 150 -35 6 -6 62 43 152 133 79 79
143 146 143 149 0 13 -81 59 -137 78 -71 24 -129 29 -207 19z"/>
<path d="M822 751 l-140 -140 22 -55 c18 -43 21 -66 16 -105 -3 -28 -10 -54
-14 -58 -15 -15 -131 -8 -173 10 l-41 19 -141 -142 c-162 -162 -160 -155 -50
-204 77 -35 90 -38 178 -41 124 -4 240 43 318 127 43 47 70 74 137 136 144
135 178 354 81 529 -17 31 -36 58 -42 60 -6 2 -74 -59 -151 -136z"/>
</g>
</svg>
